<?xml version="1.0" encoding="UTF-8"?>
<!DOCTYPE svg PUBLIC "-//W3C//DTD SVG 1.1//EN" "http://www.w3.org/Graphics/SVG/1.1/DTD/svg11.dtd">
<svg version="1.2" width="288mm" height="207mm" viewBox="0 0 28800 20700" preserveAspectRatio="xMidYMid" fill-rule="evenodd" stroke-width="28.222" stroke-linejoin="round" xmlns="http://www.w3.org/2000/svg" xmlns:ooo="http://xml.openoffice.org/svg/export" xmlns:xlink="http://www.w3.org/1999/xlink" xmlns:presentation="http://sun.com/xmlns/staroffice/presentation" xmlns:smil="http://www.w3.org/2001/SMIL20/" xmlns:anim="urn:oasis:names:tc:opendocument:xmlns:animation:1.0" xml:space="preserve">
 <defs class="ClipPathGroup">
  <clipPath id="presentation_clip_path" clipPathUnits="userSpaceOnUse">
   <rect x="0" y="0" width="28800" height="20700"/>
  </clipPath>
  <clipPath id="presentation_clip_path_shrink" clipPathUnits="userSpaceOnUse">
   <rect x="28" y="20" width="28743" height="20659"/>
  </clipPath>
 </defs>
 <defs class="TextShapeIndex">
  <g ooo:slide="id1" ooo:id-list="id3 id4 id5 id6 id7 id8 id9"/>
 </defs>
 <defs class="EmbeddedBulletChars">
  <g id="bullet-char-template-57356" transform="scale(0.00048828125,-0.00048828125)">
   <path d="M 580,1141 L 1163,571 580,0 -4,571 580,1141 Z"/>
  </g>
  <g id="bullet-char-template-57354" transform="scale(0.00048828125,-0.00048828125)">
   <path d="M 8,1128 L 1137,1128 1137,0 8,0 8,1128 Z"/>
  </g>
  <g id="bullet-char-template-10146" transform="scale(0.00048828125,-0.00048828125)">
   <path d="M 174,0 L 602,739 174,1481 1456,739 174,0 Z M 1358,739 L 309,1346 659,739 1358,739 Z"/>
  </g>
  <g id="bullet-char-template-10132" transform="scale(0.00048828125,-0.00048828125)">
   <path d="M 2015,739 L 1276,0 717,0 1260,543 174,543 174,936 1260,936 717,1481 1274,1481 2015,739 Z"/>
  </g>
  <g id="bullet-char-template-10007" transform="scale(0.00048828125,-0.00048828125)">
   <path d="M 0,-2 C -7,14 -16,27 -25,37 L 356,567 C 262,823 215,952 215,954 215,979 228,992 255,992 264,992 276,990 289,987 310,991 331,999 354,1012 L 381,999 492,748 772,1049 836,1024 860,1049 C 881,1039 901,1025 922,1006 886,937 835,863 770,784 769,783 710,716 594,584 L 774,223 C 774,196 753,168 711,139 L 727,119 C 717,90 699,76 672,76 641,76 570,178 457,381 L 164,-76 C 142,-110 111,-127 72,-127 30,-127 9,-110 8,-76 1,-67 -2,-52 -2,-32 -2,-23 -1,-13 0,-2 Z"/>
  </g>
  <g id="bullet-char-template-10004" transform="scale(0.00048828125,-0.00048828125)">
   <path d="M 285,-33 C 182,-33 111,30 74,156 52,228 41,333 41,471 41,549 55,616 82,672 116,743 169,778 240,778 293,778 328,747 346,684 L 369,508 C 377,444 397,411 428,410 L 1163,1116 C 1174,1127 1196,1133 1229,1133 1271,1133 1292,1118 1292,1087 L 1292,965 C 1292,929 1282,901 1262,881 L 442,47 C 390,-6 338,-33 285,-33 Z"/>
  </g>
  <g id="bullet-char-template-9679" transform="scale(0.00048828125,-0.00048828125)">
   <path d="M 813,0 C 632,0 489,54 383,161 276,268 223,411 223,592 223,773 276,916 383,1023 489,1130 632,1184 813,1184 992,1184 1136,1130 1245,1023 1353,916 1407,772 1407,592 1407,412 1353,268 1245,161 1136,54 992,0 813,0 Z"/>
  </g>
  <g id="bullet-char-template-8226" transform="scale(0.00048828125,-0.00048828125)">
   <path d="M 346,457 C 273,457 209,483 155,535 101,586 74,649 74,723 74,796 101,859 155,911 209,963 273,989 346,989 419,989 480,963 531,910 582,859 608,796 608,723 608,648 583,586 532,535 482,483 420,457 346,457 Z"/>
  </g>
  <g id="bullet-char-template-8211" transform="scale(0.00048828125,-0.00048828125)">
   <path d="M -4,459 L 1135,459 1135,606 -4,606 -4,459 Z"/>
  </g>
  <g id="bullet-char-template-61548" transform="scale(0.00048828125,-0.00048828125)">
   <path d="M 173,740 C 173,903 231,1043 346,1159 462,1274 601,1332 765,1332 928,1332 1067,1274 1183,1159 1299,1043 1357,903 1357,740 1357,577 1299,437 1183,322 1067,206 928,148 765,148 601,148 462,206 346,322 231,437 173,577 173,740 Z"/>
  </g>
 </defs>
 <g>
  <g id="id2" class="Master_Slide">
   <g id="bg-id2" class="Background"/>
   <g id="bo-id2" class="BackgroundObjects"/>
  </g>
 </g>
 <g class="SlideGroup">
  <g>
   <g id="container-id1">
    <g id="id1" class="Slide" clip-path="url(#presentation_clip_path)">
     <g class="Page">
      <g class="Group">
       <g class="Group">
        <g class="com.sun.star.drawing.CustomShape">
         <g id="id3">
          <rect class="BoundingBox" stroke="none" fill="none" x="12963" y="6666" width="7369" height="7367"/>
          <path fill="rgb(255,255,255)" stroke="none" d="M 13571,13975 L 13571,13974 C 13595,13999 13625,14016 13658,14025 13691,14033 13726,14033 13759,14025 13792,14016 13822,13998 13846,13974 L 20274,7547 20274,7546 C 20298,7522 20315,7492 20324,7459 20333,7426 20333,7392 20324,7359 20315,7326 20298,7296 20274,7272 L 19724,6723 19724,6723 C 19699,6699 19669,6681 19636,6673 19603,6664 19569,6664 19536,6673 19503,6682 19473,6699 19449,6723 L 13020,13151 13021,13151 13021,13151 C 12997,13175 12979,13205 12970,13238 12962,13271 12962,13306 12970,13338 12979,13371 12997,13401 13021,13425 L 13571,13975 Z"/>
         </g>
        </g>
        <g class="com.sun.star.drawing.CustomShape">
         <g id="id4">
          <rect class="BoundingBox" stroke="none" fill="none" x="12807" y="6661" width="7382" height="7380"/>
          <path fill="rgb(255,255,255)" stroke="none" d="M 12861,7241 L 12862,7241 C 12839,7264 12822,7293 12814,7324 12805,7356 12805,7389 12814,7420 12822,7452 12839,7480 12862,7504 L 19345,13985 19345,13985 C 19368,14008 19397,14025 19429,14033 19460,14041 19493,14041 19525,14033 19556,14025 19585,14008 19608,13985 L 20133,13460 20133,13460 C 20156,13437 20173,13408 20181,13377 20190,13345 20190,13312 20181,13280 20173,13249 20156,13220 20133,13197 L 13649,6715 13649,6716 13649,6716 C 13626,6693 13598,6676 13566,6668 13535,6659 13502,6659 13470,6668 13439,6676 13410,6693 13387,6716 L 12861,7241 Z"/>
         </g>
        </g>
       </g>
       <g class="Group">
        <g class="Group">
         <g class="com.sun.star.drawing.CustomShape">
          <g id="id5">
           <rect class="BoundingBox" stroke="none" fill="none" x="4029" y="3206" width="7203" height="7145"/>
           <path fill="rgb(255,255,255)" stroke="none" d="M 9680,3206 L 11231,3206 5581,10350 4030,10350 9680,3206 Z"/>
          </g>
         </g>
         <g class="com.sun.star.drawing.CustomShape">
          <g id="id6">
           <rect class="BoundingBox" stroke="none" fill="none" x="4027" y="10349" width="7202" height="7145"/>
           <path fill="rgb(255,255,255)" stroke="none" d="M 5591,10349 L 4027,10349 9664,17493 11228,17493 5591,10349 Z"/>
          </g>
         </g>
         <g class="com.sun.star.drawing.CustomShape">
          <g id="id7">
           <rect class="BoundingBox" stroke="none" fill="none" x="9731" y="3206" width="15042" height="1295"/>
           <path fill="rgb(255,255,255)" stroke="none" d="M 9731,4285 L 9731,4284 C 9731,4322 9741,4359 9760,4392 9779,4425 9806,4452 9839,4471 9872,4490 9909,4500 9947,4500 L 24556,4500 24556,4500 C 24594,4500 24631,4490 24664,4471 24697,4452 24724,4425 24743,4392 24762,4359 24772,4322 24772,4284 L 24772,3422 24772,3422 C 24772,3384 24762,3347 24743,3314 24724,3281 24697,3254 24664,3235 24631,3216 24594,3206 24556,3206 L 9946,3206 9947,3206 9947,3206 C 9909,3206 9872,3216 9839,3235 9806,3254 9779,3281 9760,3314 9741,3347 9731,3384 9731,3422 L 9731,4285 Z"/>
          </g>
         </g>
         <g class="com.sun.star.drawing.CustomShape">
          <g id="id8">
           <rect class="BoundingBox" stroke="none" fill="none" x="23481" y="3249" width="1292" height="14245"/>
           <path fill="rgb(255,255,255)" stroke="none" d="M 23696,3249 L 23696,3249 C 23658,3249 23621,3259 23589,3278 23556,3297 23529,3324 23510,3357 23491,3389 23481,3426 23481,3464 L 23481,17277 23481,17278 C 23481,17316 23491,17353 23510,17385 23529,17418 23556,17445 23589,17464 23621,17483 23658,17493 23696,17493 L 24556,17493 24557,17493 C 24595,17493 24632,17483 24664,17464 24697,17445 24724,17418 24743,17385 24762,17353 24772,17316 24772,17278 L 24772,3464 24772,3464 24772,3464 C 24772,3426 24762,3389 24743,3357 24724,3324 24697,3297 24664,3278 24632,3259 24595,3249 24557,3249 L 23696,3249 Z"/>
          </g>
         </g>
        </g>
        <g class="com.sun.star.drawing.CustomShape">
         <g id="id9">
          <rect class="BoundingBox" stroke="none" fill="none" x="9731" y="16249" width="15042" height="1245"/>
          <path fill="rgb(255,255,255)" stroke="none" d="M 9731,17286 L 9731,17286 C 9731,17322 9741,17358 9759,17389 9777,17421 9803,17447 9835,17465 9866,17483 9902,17493 9938,17493 L 24564,17493 24565,17493 C 24601,17493 24637,17483 24668,17465 24700,17447 24726,17421 24744,17389 24762,17358 24772,17322 24772,17286 L 24771,16457 24772,16456 C 24772,16420 24762,16384 24744,16353 24726,16321 24700,16295 24668,16277 24637,16259 24601,16249 24565,16249 L 9938,16249 9938,16249 9938,16249 C 9902,16249 9866,16259 9835,16277 9803,16295 9777,16321 9759,16353 9741,16384 9731,16420 9731,16456 L 9731,17286 Z"/>
         </g>
        </g>
       </g>
      </g>
     </g>
    </g>
   </g>
  </g>
 </g>
</svg>