<?xml version="1.0" encoding="UTF-8"?>
<!DOCTYPE svg PUBLIC "-//W3C//DTD SVG 1.1//EN" "http://www.w3.org/Graphics/SVG/1.1/DTD/svg11.dtd">
<svg version="1.2" width="288mm" height="207mm" viewBox="0 0 28800 20700" preserveAspectRatio="xMidYMid" fill-rule="evenodd" stroke-width="28.222" stroke-linejoin="round" xmlns="http://www.w3.org/2000/svg" xmlns:ooo="http://xml.openoffice.org/svg/export" xmlns:xlink="http://www.w3.org/1999/xlink" xmlns:presentation="http://sun.com/xmlns/staroffice/presentation" xmlns:smil="http://www.w3.org/2001/SMIL20/" xmlns:anim="urn:oasis:names:tc:opendocument:xmlns:animation:1.0" xml:space="preserve">
 <defs class="ClipPathGroup">
  <clipPath id="presentation_clip_path" clipPathUnits="userSpaceOnUse">
   <rect x="0" y="0" width="28800" height="20700"/>
  </clipPath>
  <clipPath id="presentation_clip_path_shrink" clipPathUnits="userSpaceOnUse">
   <rect x="28" y="20" width="28743" height="20659"/>
  </clipPath>
 </defs>
 <defs class="TextShapeIndex">
  <g ooo:slide="id1" ooo:id-list="id3 id4 id5 id6 id7 id8 id9"/>
 </defs>
 <defs class="EmbeddedBulletChars">
  <g id="bullet-char-template-57356" transform="scale(0.00048828125,-0.00048828125)">
   <path d="M 580,1141 L 1163,571 580,0 -4,571 580,1141 Z"/>
  </g>
  <g id="bullet-char-template-57354" transform="scale(0.00048828125,-0.00048828125)">
   <path d="M 8,1128 L 1137,1128 1137,0 8,0 8,1128 Z"/>
  </g>
  <g id="bullet-char-template-10146" transform="scale(0.00048828125,-0.00048828125)">
   <path d="M 174,0 L 602,739 174,1481 1456,739 174,0 Z M 1358,739 L 309,1346 659,739 1358,739 Z"/>
  </g>
  <g id="bullet-char-template-10132" transform="scale(0.00048828125,-0.00048828125)">
   <path d="M 2015,739 L 1276,0 717,0 1260,543 174,543 174,936 1260,936 717,1481 1274,1481 2015,739 Z"/>
  </g>
  <g id="bullet-char-template-10007" transform="scale(0.00048828125,-0.00048828125)">
   <path d="M 0,-2 C -7,14 -16,27 -25,37 L 356,567 C 262,823 215,952 215,954 215,979 228,992 255,992 264,992 276,990 289,987 310,991 331,999 354,1012 L 381,999 492,748 772,1049 836,1024 860,1049 C 881,1039 901,1025 922,1006 886,937 835,863 770,784 769,783 710,716 594,584 L 774,223 C 774,196 753,168 711,139 L 727,119 C 717,90 699,76 672,76 641,76 570,178 457,381 L 164,-76 C 142,-110 111,-127 72,-127 30,-127 9,-110 8,-76 1,-67 -2,-52 -2,-32 -2,-23 -1,-13 0,-2 Z"/>
  </g>
  <g id="bullet-char-template-10004" transform="scale(0.00048828125,-0.00048828125)">
   <path d="M 285,-33 C 182,-33 111,30 74,156 52,228 41,333 41,471 41,549 55,616 82,672 116,743 169,778 240,778 293,778 328,747 346,684 L 369,508 C 377,444 397,411 428,410 L 1163,1116 C 1174,1127 1196,1133 1229,1133 1271,1133 1292,1118 1292,1087 L 1292,965 C 1292,929 1282,901 1262,881 L 442,47 C 390,-6 338,-33 285,-33 Z"/>
  </g>
  <g id="bullet-char-template-9679" transform="scale(0.00048828125,-0.00048828125)">
   <path d="M 813,0 C 632,0 489,54 383,161 276,268 223,411 223,592 223,773 276,916 383,1023 489,1130 632,1184 813,1184 992,1184 1136,1130 1245,1023 1353,916 1407,772 1407,592 1407,412 1353,268 1245,161 1136,54 992,0 813,0 Z"/>
  </g>
  <g id="bullet-char-template-8226" transform="scale(0.00048828125,-0.00048828125)">
   <path d="M 346,457 C 273,457 209,483 155,535 101,586 74,649 74,723 74,796 101,859 155,911 209,963 273,989 346,989 419,989 480,963 531,910 582,859 608,796 608,723 608,648 583,586 532,535 482,483 420,457 346,457 Z"/>
  </g>
  <g id="bullet-char-template-8211" transform="scale(0.00048828125,-0.00048828125)">
   <path d="M -4,459 L 1135,459 1135,606 -4,606 -4,459 Z"/>
  </g>
  <g id="bullet-char-template-61548" transform="scale(0.00048828125,-0.00048828125)">
   <path d="M 173,740 C 173,903 231,1043 346,1159 462,1274 601,1332 765,1332 928,1332 1067,1274 1183,1159 1299,1043 1357,903 1357,740 1357,577 1299,437 1183,322 1067,206 928,148 765,148 601,148 462,206 346,322 231,437 173,577 173,740 Z"/>
  </g>
 </defs>
 <g>
  <g id="id2" class="Master_Slide">
   <g id="bg-id2" class="Background"/>
   <g id="bo-id2" class="BackgroundObjects"/>
  </g>
 </g>
 <g class="SlideGroup">
  <g>
   <g id="container-id1">
    <g id="id1" class="Slide" clip-path="url(#presentation_clip_path)">
     <g class="Page">
      <g class="Group">
       <g class="Group">
        <g class="com.sun.star.drawing.CustomShape">
         <g id="id3">
          <rect class="BoundingBox" stroke="none" fill="none" x="12962" y="6963" width="7369" height="7367"/>
          <path fill="rgb(0,0,0)" stroke="none" d="M 13570,14272 L 13570,14271 C 13594,14296 13624,14313 13657,14322 13690,14330 13725,14330 13758,14322 13791,14313 13821,14295 13845,14271 L 20273,7844 20273,7843 C 20297,7819 20314,7789 20323,7756 20332,7723 20332,7689 20323,7656 20314,7623 20297,7593 20273,7569 L 19723,7020 19723,7020 C 19698,6996 19668,6978 19635,6970 19602,6961 19568,6961 19535,6970 19502,6979 19472,6996 19448,7020 L 13019,13448 13020,13448 13020,13448 C 12996,13472 12978,13502 12969,13535 12961,13568 12961,13603 12969,13635 12978,13668 12996,13698 13020,13722 L 13570,14272 Z"/>
         </g>
        </g>
        <g class="com.sun.star.drawing.CustomShape">
         <g id="id4">
          <rect class="BoundingBox" stroke="none" fill="none" x="12806" y="6958" width="7382" height="7380"/>
          <path fill="rgb(0,0,0)" stroke="none" d="M 12860,7538 L 12861,7538 C 12838,7561 12821,7590 12813,7621 12804,7653 12804,7686 12813,7717 12821,7749 12838,7777 12861,7801 L 19344,14282 19344,14282 C 19367,14305 19396,14322 19428,14330 19459,14338 19492,14338 19524,14330 19555,14322 19584,14305 19607,14282 L 20132,13757 20132,13757 C 20155,13734 20172,13705 20180,13674 20189,13642 20189,13609 20180,13577 20172,13546 20155,13517 20132,13494 L 13648,7012 13648,7013 13648,7013 C 13625,6990 13597,6973 13565,6965 13534,6956 13501,6956 13469,6965 13438,6973 13409,6990 13386,7013 L 12860,7538 Z"/>
         </g>
        </g>
       </g>
       <g class="Group">
        <g class="com.sun.star.drawing.CustomShape">
         <g id="id5">
          <rect class="BoundingBox" stroke="none" fill="none" x="4030" y="10349" width="7202" height="7145"/>
          <path fill="rgb(0,0,0)" stroke="none" d="M 5594,10349 L 4030,10349 9667,17493 11231,17493 5594,10349 Z"/>
         </g>
        </g>
        <g class="Group">
         <g class="com.sun.star.drawing.CustomShape">
          <g id="id6">
           <rect class="BoundingBox" stroke="none" fill="none" x="4028" y="3206" width="7203" height="7145"/>
           <path fill="rgb(0,0,0)" stroke="none" d="M 9679,3206 L 11230,3206 5580,10350 4029,10350 9679,3206 Z"/>
          </g>
         </g>
         <g class="com.sun.star.drawing.CustomShape">
          <g id="id7">
           <rect class="BoundingBox" stroke="none" fill="none" x="9730" y="3206" width="15042" height="1295"/>
           <path fill="rgb(0,0,0)" stroke="none" d="M 9730,4285 L 9730,4284 C 9730,4322 9740,4359 9759,4392 9778,4425 9805,4452 9838,4471 9871,4490 9908,4500 9946,4500 L 24555,4500 24555,4500 C 24593,4500 24630,4490 24663,4471 24696,4452 24723,4425 24742,4392 24761,4359 24771,4322 24771,4284 L 24771,3422 24771,3422 C 24771,3384 24761,3347 24742,3314 24723,3281 24696,3254 24663,3235 24630,3216 24593,3206 24555,3206 L 9945,3206 9946,3206 9946,3206 C 9908,3206 9871,3216 9838,3235 9805,3254 9778,3281 9759,3314 9740,3347 9730,3384 9730,3422 L 9730,4285 Z"/>
          </g>
         </g>
         <g class="com.sun.star.drawing.CustomShape">
          <g id="id8">
           <rect class="BoundingBox" stroke="none" fill="none" x="23480" y="3249" width="1293" height="14245"/>
           <path fill="rgb(0,0,0)" stroke="none" d="M 23695,3249 L 23695,3249 C 23657,3249 23620,3259 23588,3278 23555,3297 23528,3324 23509,3357 23490,3389 23480,3426 23480,3464 L 23480,17277 23480,17278 C 23480,17316 23490,17353 23509,17385 23528,17418 23555,17445 23588,17464 23620,17483 23657,17493 23695,17493 L 24555,17493 24556,17493 C 24594,17493 24631,17483 24663,17464 24696,17445 24723,17418 24742,17385 24761,17353 24771,17316 24771,17278 L 24771,3464 24771,3464 24771,3464 C 24771,3426 24761,3389 24742,3357 24723,3324 24696,3297 24663,3278 24631,3259 24594,3249 24556,3249 L 23695,3249 Z"/>
          </g>
         </g>
         <g class="com.sun.star.drawing.CustomShape">
          <g id="id9">
           <rect class="BoundingBox" stroke="none" fill="none" x="9729" y="16249" width="15043" height="1245"/>
           <path fill="rgb(0,0,0)" stroke="none" d="M 9730,17286 L 9730,17286 C 9730,17322 9740,17358 9758,17389 9776,17421 9802,17447 9834,17465 9865,17483 9901,17493 9937,17493 L 24563,17493 24564,17493 C 24600,17493 24636,17483 24667,17465 24699,17447 24725,17421 24743,17389 24761,17358 24771,17322 24771,17286 L 24770,16457 24771,16456 C 24771,16420 24761,16384 24743,16353 24725,16321 24699,16295 24667,16277 24636,16259 24600,16249 24564,16249 L 9937,16249 9937,16249 9937,16249 C 9901,16249 9865,16259 9834,16277 9802,16295 9776,16321 9758,16353 9740,16384 9730,16420 9730,16456 L 9730,17286 Z"/>
          </g>
         </g>
        </g>
       </g>
      </g>
     </g>
    </g>
   </g>
  </g>
 </g>
</svg>